<?xml version="1.0" encoding="UTF-8" standalone="no"?><!DOCTYPE svg PUBLIC "-//W3C//DTD SVG 1.1//EN" "http://www.w3.org/Graphics/SVG/1.1/DTD/svg11.dtd"><svg width="100%" height="100%" viewBox="0 0 499 174" version="1.1" xmlns="http://www.w3.org/2000/svg" xmlns:xlink="http://www.w3.org/1999/xlink" xml:space="preserve" style="fill-rule:evenodd;clip-rule:evenodd;stroke-linejoin:round;stroke-miterlimit:1.41421;"><rect id="Artboard1" x="0" y="0" width="500" height="174.667" style="fill:none;"/><clipPath id="_clip1"><rect x="0" y="0" width="500" height="174.667"/></clipPath><g clip-path="url(#_clip1)"><g><path d="M456.387,172.466c0,-4.3 5.586,-7.026 10.913,-7.026c0.8,0 0.093,-6.256 -7.465,-5.172c-5.03,0.726 -9.197,1.076 -9.197,5.172c0,3.232 2.568,8.217 6.148,9.227c-0.254,-0.696 -0.399,-1.434 -0.399,-2.201" style="fill:#fcc615;"/><path d="M441.746,170.632c0,-4.466 4.778,-6.867 9.35,-6.867c0.687,0 2.1,-1.585 2.748,-1.432c-1.163,-2.835 -5.823,-4.383 -9.142,-4.383c-4.354,0 -7.888,3.45 -7.888,7.707c0,3.36 2.208,6.218 5.275,7.271c-0.217,-0.731 -0.343,-1.498 -0.343,-2.296" style="fill:#fcc615;"/><path d="M473.729,23.023c-10.776,-5.698 -24.114,1.993 -29.18,13.757c-8.742,-20.589 -34.92,-15.329 -34.92,-15.329c-14.523,8.237 -21.938,21.483 -10.485,41.491c7.484,13.073 37.757,11.306 45.867,-5.555c1.452,2.934 3.573,5.831 6.47,8.591c17.204,16.399 36.251,-6.689 36.251,-6.689c6.373,-15.415 4.78,-26.323 -14.003,-36.266" style="fill:#fcc615;"/><path d="M441.324,67.484c0,0 1.983,-5.146 3.316,-6.052c1.33,-0.908 3.785,6.052 3.785,6.052l-3.382,10.895c0,0 -2.166,-7.565 -3.719,-10.895" style="fill:#f58025;"/><path d="M417.151,45.407c0,0 4.49,-0.924 5.406,2.774c1.021,4.124 -5.168,6.882 -6.814,3.813c-1.639,-3.065 -0.756,-5.338 1.408,-6.587" style="fill:#572700;"/><path d="M480.666,124.652l0.051,0l0.089,-0.003c0.288,-0.035 0.544,-0.069 0.78,-0.14l0.105,-0.024c0.318,-0.074 0.623,-0.187 0.87,-0.322c0.649,-0.297 1.037,-0.67 1.075,-0.839c0.023,-0.166 0.051,-0.457 0.074,-0.851c0,-0.227 0.016,-0.491 0.028,-0.775c0.016,-0.257 0.026,-0.515 0.019,-0.792c0.04,-0.911 0.063,-1.909 0.105,-2.761c-0.52,-0.031 -1.031,-0.138 -1.543,-0.29c-0.562,-0.161 -1.002,-0.501 -1.363,-0.949l-1.588,-0.438c-0.518,0.425 -1.234,0.797 -2.059,1.015c-0.106,1.302 -0.125,2.613 -0.008,3.778c0.028,0.282 0.059,0.553 0.117,0.808c0.041,0.305 0.113,0.586 0.183,0.836c0.228,0.795 0.583,1.347 1.083,1.502c0.383,0.129 0.79,0.201 1.188,0.231c0.263,0.029 0.54,0.029 0.794,0.014" style="fill:#4fb3cf;fill-rule:nonzero;"/><path d="M468.064,120.865c0.018,0.287 0.055,0.553 0.096,0.813c0.213,1.228 0.607,2.114 1.261,2.32c0.569,0.166 1.141,0.252 1.709,0.231l0.275,-0.002l0.151,-0.01l0,-0.013l0.428,-0.036c0.173,-0.03 0.326,-0.071 0.459,-0.11l0.403,-0.127c0.174,-0.038 0.338,-0.11 0.472,-0.177c0.652,-0.317 1.036,-0.668 1.072,-0.842c0.029,-0.166 0.041,-0.454 0.062,-0.85c0.014,-0.226 0.006,-0.499 0.023,-0.786c0.018,-0.242 0.032,-0.503 0.024,-0.776c0.039,-0.898 0.083,-1.913 0.102,-2.765c-0.508,-0.049 -1.025,-0.137 -1.517,-0.289c-0.572,-0.181 -1.028,-0.514 -1.39,-0.965l-0.365,-0.099c-0.585,0.759 -1.807,1.483 -3.343,1.742c-0.016,0.67 -0.016,1.322 0.019,1.936c0.001,0.279 0.021,0.55 0.059,0.805" style="fill:#4fb3cf;fill-rule:nonzero;"/><path d="M473.609,128.691c0.121,0.343 0.22,0.639 0.36,0.887c0.198,0.355 0.462,0.578 0.761,0.669c0.615,0.188 1.259,0.271 1.9,0.254l0.082,-0.005l0.411,-0.043l0.373,-0.067c0.19,-0.043 0.357,-0.082 0.526,-0.136l0.336,-0.127c0.218,-0.09 0.4,-0.177 0.567,-0.274l0.278,-0.184c0.295,-0.202 0.451,-0.392 0.477,-0.499l0.025,-0.153c0.003,-0.182 0.017,-0.456 0.028,-0.775c0.04,-0.562 0.073,-1.319 0.081,-2.093c-0.573,-0.024 -1.13,-0.149 -1.694,-0.313c-1.078,-0.317 -1.737,-1.232 -2.12,-2.42c-0.303,0.777 -1.329,1.58 -2.745,2.014c0.014,0.877 0.062,1.706 0.185,2.426c0.042,0.315 0.117,0.586 0.169,0.839" style="fill:#4fb3cf;fill-rule:nonzero;"/><path d="M483.924,86.384c0.035,-0.166 0.089,-0.482 0.141,-0.893c0.032,-0.237 0.05,-0.5 0.084,-0.784c0.039,-0.241 0.071,-0.499 0.087,-0.774c0.115,-1.059 0.259,-2.221 0.326,-3.068c-0.528,-0.057 -1.066,-0.196 -1.601,-0.395c-0.326,-0.119 -0.601,-0.287 -0.843,-0.511l-0.016,-0.015l-1.775,-0.588c-0.475,0.542 -1.308,1.023 -2.344,1.313c-0.219,1.527 -0.307,3.119 -0.137,4.322c0.021,0.321 0.071,0.61 0.161,0.865l0,0.019c0.084,0.391 0.239,0.707 0.43,0.946l0.375,0.319l0.089,0.048c0.241,0.09 0.499,0.153 0.743,0.21l0.343,0.059c0.172,0.033 0.358,0.06 0.532,0.06l0.342,0.014c0.31,0 0.602,-0.028 0.861,-0.074c1.291,-0.192 2.134,-0.813 2.202,-1.073" style="fill:#4fb3cf;fill-rule:nonzero;"/><path d="M483.211,129.956c0.203,0.368 0.441,0.631 0.76,0.719c0.652,0.189 1.329,0.268 1.982,0.233l0.279,-0.034l0.153,-0.01c0.259,-0.03 0.491,-0.095 0.712,-0.151l0.17,-0.054c0.353,-0.107 0.654,-0.247 0.898,-0.388l0.296,-0.181c0.279,-0.215 0.435,-0.391 0.465,-0.501l0.027,-0.147c0.003,-0.186 0.03,-0.457 0.041,-0.792c0.041,-0.808 0.092,-1.976 0.113,-3.085c-0.472,-0.05 -0.963,-0.155 -1.425,-0.295c-1.022,-0.301 -1.674,-1.161 -2.074,-2.277l-0.211,-0.059c-0.015,0.245 -0.032,0.442 -0.042,0.567c-0.107,0.852 -1.206,1.844 -2.843,2.341c0.01,1.202 0.116,2.346 0.356,3.23c0.076,0.343 0.201,0.64 0.343,0.884" style="fill:#4fb3cf;fill-rule:nonzero;"/><path d="M463.916,114.907c0.099,0.343 0.201,0.643 0.348,0.891c0.192,0.353 0.457,0.591 0.751,0.684c0.287,0.089 0.586,0.149 0.864,0.191l0.455,0.048l0.407,0.007l0.278,0l0.205,-0.032l0.378,-0.032c0.174,-0.028 0.344,-0.068 0.491,-0.105c0.631,-0.177 1.126,-0.433 1.455,-0.662c0.257,-0.199 0.41,-0.389 0.444,-0.499l0.02,-0.153c0.004,-0.193 0.039,-0.468 0.044,-0.79c0.015,-0.472 0.045,-1.034 0.07,-1.625c-0.172,0.044 -0.343,0.051 -0.519,0.061c-0.891,0.054 -1.793,-0.046 -2.656,-0.31c-1.044,-0.318 -1.703,-1.193 -2.093,-2.317c-0.319,0.335 -0.748,0.644 -1.28,0.893c-0.022,1.044 0.021,2.057 0.169,2.914c0.041,0.299 0.096,0.585 0.169,0.836" style="fill:#4fb3cf;fill-rule:nonzero;"/><path d="M460.021,82.498c0.021,0.301 0.067,0.607 0.14,0.865c0.101,0.393 0.258,0.724 0.429,0.948c0.119,0.156 0.242,0.259 0.397,0.318l0.084,0.046l0.375,0.123l0.388,0.106l0.472,0.076l0.383,0.04l0.342,0.017l0.12,0c0.881,-0.017 1.6,-0.239 2.121,-0.509c0.391,-0.186 0.665,-0.394 0.77,-0.543l0.058,-0.096c0.034,-0.133 0.065,-0.361 0.097,-0.665c0.103,-0.784 0.263,-2.039 0.367,-3.251c-0.811,-0.013 -1.623,-0.181 -2.378,-0.454c-1.022,-0.377 -1.602,-1.282 -1.915,-2.438c-0.48,0.46 -1.217,0.852 -2.11,1.093c-0.228,1.527 -0.296,3.101 -0.14,4.324" style="fill:#4fb3cf;fill-rule:nonzero;"/><path d="M463.948,92.389c0.408,0.151 0.84,0.256 1.266,0.301l0.434,0.049l0.258,0.013l0.194,-0.013l0.429,-0.016l0.445,-0.078c0.174,-0.03 0.326,-0.072 0.461,-0.119c0.918,-0.273 1.483,-0.726 1.535,-0.927c0.037,-0.132 0.067,-0.39 0.12,-0.711c0.017,-0.223 0.052,-0.482 0.087,-0.772c0.034,-0.236 0.067,-0.512 0.102,-0.783c0.051,-0.512 0.104,-1.062 0.173,-1.585l-0.429,-0.135c-1.016,-0.38 -1.588,-1.274 -1.913,-2.406c-0.839,0.741 -2.338,1.343 -4.079,1.343l-0.085,0c-0.086,0.683 -0.121,1.347 -0.121,1.969c-0.017,0.286 -0.017,0.559 0,0.814c0,0.285 0.019,0.576 0.051,0.835c0.12,1.147 0.449,1.998 1.072,2.221" style="fill:#4fb3cf;fill-rule:nonzero;"/><path d="M460.041,71.568c0.549,0.194 1.11,0.312 1.684,0.328l0.272,0.019l0.156,0l0,-0.019l0.43,-0.016c0.177,-0.012 0.329,-0.046 0.47,-0.072l0.189,-0.049c-1.259,-0.124 -2.534,-0.384 -3.817,-0.818c0.161,0.296 0.358,0.528 0.616,0.627" style="fill:#4fb3cf;fill-rule:nonzero;"/><path d="M488.163,78.762c0.291,-0.193 0.465,-0.363 0.495,-0.464l0.038,-0.155l0.034,-0.239c-0.089,-0.215 -0.153,-0.422 -0.225,-0.636c-0.4,-1.453 -0.342,-3.285 -0.155,-4.917l-2.72,-0.907c-0.037,0.232 -0.067,0.424 -0.089,0.543c-0.169,0.85 -1.339,1.788 -2.995,2.193c-0.136,1.89 -0.017,3.644 0.55,4.479l0.02,0.014c0.136,0.198 0.312,0.333 0.519,0.408c0.554,0.197 1.114,0.314 1.685,0.333l0.035,0.012l0.238,0l0.415,-0.012c0.328,-0.031 0.638,-0.077 0.917,-0.15c0.358,-0.093 0.666,-0.214 0.925,-0.334l0.313,-0.168Z" style="fill:#4fb3cf;fill-rule:nonzero;"/><path d="M487.682,115.586l0.155,-0.239c0.01,-0.106 0.034,-0.276 0.051,-0.504c0.002,-0.213 0.033,-0.483 0.042,-0.79c0.005,-0.375 0.021,-0.816 0.043,-1.291c-0.748,0 -1.477,-0.108 -2.22,-0.323c-1.198,-0.373 -1.89,-1.495 -2.253,-2.881c-0.03,0.501 -0.051,0.877 -0.068,1.093c-0.089,0.705 -0.822,1.472 -1.969,2.014c0.074,1.19 0.25,2.256 0.601,2.947c0.203,0.429 0.482,0.713 0.82,0.815c0.657,0.19 1.332,0.27 1.985,0.232l0.288,-0.027c0.16,-0.015 0.312,-0.037 0.448,-0.061l0.02,0l0.42,-0.119c0.34,-0.09 0.633,-0.217 0.893,-0.337c0.341,-0.19 0.583,-0.368 0.744,-0.529" style="fill:#4fb3cf;fill-rule:nonzero;"/><path d="M488.042,58.486c-0.107,0.268 -0.194,0.53 -0.309,0.802c0,0 -1.808,2.185 -4.798,4.731c0.155,0.391 0.394,0.674 0.7,0.787c0.503,0.18 1.015,0.285 1.54,0.332l0.419,0.019l0.467,-0.019l0.274,-0.03l0.019,0c0.202,-0.031 0.397,-0.077 0.57,-0.122c1.425,-0.604 1.703,-0.832 1.734,-0.967c0.071,-0.332 0.191,-1.284 0.313,-2.39c0.033,-0.244 0.047,-0.499 0.077,-0.771c0.043,-0.253 0.062,-0.525 0.096,-0.79c0.053,-0.526 0.102,-1.056 0.154,-1.507l-0.259,0.015c-0.336,0 -0.666,-0.046 -0.997,-0.09" style="fill:#4fb3cf;fill-rule:nonzero;"/><path d="M489.605,69.963l0.377,0.015c0.171,0 0.348,-0.015 0.502,-0.032l0.391,-0.046c0.184,-0.026 0.343,-0.072 0.506,-0.114c-0.046,-2.428 -0.072,-4.778 -0.082,-7.036c-0.151,-0.147 -0.305,-0.292 -0.424,-0.469l-0.015,-0.015l-0.224,-0.077c-0.115,0.939 -0.22,1.755 -0.289,2.087c-0.194,0.923 -1.55,1.935 -3.44,2.254c0.038,1.59 0.36,2.81 1.118,3.098c0.239,0.094 0.479,0.151 0.715,0.2c0.298,0.072 0.573,0.118 0.865,0.135" style="fill:#4fb3cf;fill-rule:nonzero;"/><path d="M491.665,110.008c0.053,-0.319 0.168,-1.21 0.292,-2.255c-0.312,-0.075 -0.621,-0.167 -0.916,-0.274c-1.171,-0.438 -1.772,-1.585 -2.03,-3.005c-0.068,0.497 -0.118,0.877 -0.151,1.085c-0.174,0.906 -1.519,1.909 -3.361,2.239c0.053,1.539 0.378,2.72 1.118,2.998c0.652,0.223 1.313,0.343 1.976,0.343c1.783,0 2.966,-0.844 3.072,-1.131" style="fill:#4fb3cf;fill-rule:nonzero;"/><path d="M484.512,98.635l-0.122,-0.031c-0.049,0.348 -0.087,0.615 -0.117,0.788c-0.193,0.92 -1.567,1.933 -3.426,2.253c0,0.178 -0.017,0.362 0,0.542c-0.017,0.285 -0.017,0.562 0,0.816c0,0.29 0.014,0.561 0.046,0.82c0.123,1.161 0.455,2.041 1.067,2.267l0.416,0.124c0.275,0.087 0.554,0.147 0.847,0.18c0.242,0.026 0.463,0.047 0.701,0.047l0.156,0l0,-0.021c1.686,-0.026 2.826,-0.842 2.907,-1.117c0.11,-0.467 0.296,-2.103 0.452,-3.7c-0.327,-0.083 -0.656,-0.17 -0.963,-0.292c-1.084,-0.395 -1.689,-1.422 -1.964,-2.676" style="fill:#4fb3cf;fill-rule:nonzero;"/><path d="M487.749,92.572c0.03,-0.137 0.067,-0.395 0.122,-0.726c0.017,-0.229 0.049,-0.483 0.079,-0.773c0.04,-0.243 0.075,-0.513 0.085,-0.785c0.07,-0.5 0.127,-1.06 0.192,-1.576l-0.411,-0.136c-1.032,-0.377 -1.621,-1.299 -1.947,-2.464l-0.17,-0.059c-0.013,0.273 -0.054,0.47 -0.092,0.604c-0.199,1.029 -1.836,2.148 -4.004,2.343c-0.035,0.865 -0.017,1.679 0.088,2.376c0.031,0.315 0.105,0.62 0.19,0.878c0.168,0.511 0.411,0.89 0.754,1.042l0.087,0.062c0.167,0.061 0.343,0.12 0.516,0.15c0.287,0.073 0.564,0.135 0.842,0.164l0.347,0.018l0.257,0.015l0.277,-0.015l0.36,-0.018c0.324,-0.046 0.632,-0.104 0.892,-0.194c0.91,-0.274 1.483,-0.713 1.536,-0.906" style="fill:#4fb3cf;fill-rule:nonzero;"/><path d="M467.3,110.796c0.638,0.222 1.292,0.344 1.96,0.344c1.775,0 2.982,-0.846 3.067,-1.132c0.051,-0.32 0.173,-1.21 0.275,-2.27c-0.31,-0.06 -0.602,-0.152 -0.9,-0.258c-1.044,-0.377 -1.631,-1.344 -1.944,-2.538c-0.412,0.861 -1.801,1.736 -3.592,1.979c-0.05,1.952 0.262,3.55 1.134,3.875" style="fill:#4fb3cf;fill-rule:nonzero;"/><path d="M477.764,70.4c0.031,0.314 0.084,0.606 0.153,0.864c0.122,0.412 0.297,0.743 0.52,0.967c0.099,0.14 0.239,0.227 0.395,0.285c0.294,0.11 0.585,0.201 0.876,0.26c0.296,0.06 0.589,0.091 0.875,0.091l0.212,0.016l0.137,0c0.191,0 0.36,-0.016 0.515,-0.034l0.376,-0.073c0.326,-0.059 0.641,-0.15 0.899,-0.273c0.669,-0.257 1.08,-0.607 1.134,-0.768c0.034,-0.166 0.068,-0.456 0.122,-0.847c0.035,-0.232 0.066,-0.488 0.102,-0.775c0.017,-0.258 0.057,-0.51 0.087,-0.789c0.106,-0.903 0.206,-1.901 0.291,-2.749c-0.499,-0.075 -0.994,-0.194 -1.497,-0.378c-0.55,-0.197 -0.961,-0.561 -1.292,-1.028l-0.101,-0.035c-1.156,0.906 -2.443,1.825 -3.84,2.678c-0.058,0.939 -0.056,1.834 0.036,2.588" style="fill:#4fb3cf;fill-rule:nonzero;"/><path d="M463.858,76.495c0.089,0.349 0.173,0.652 0.294,0.907c0.172,0.361 0.416,0.606 0.706,0.713c0.607,0.225 1.241,0.345 1.878,0.364l0.083,0l0.418,-0.019l0.369,-0.041c0.198,-0.035 0.364,-0.065 0.537,-0.109l0.345,-0.107c0.22,-0.073 0.414,-0.151 0.588,-0.241l0.291,-0.165c0.31,-0.184 0.481,-0.364 0.515,-0.471l0.032,-0.149c0.023,-0.182 0.057,-0.452 0.087,-0.771c0.086,-0.563 0.171,-1.317 0.247,-2.087c-0.571,-0.061 -1.125,-0.211 -1.672,-0.412c-0.932,-0.334 -1.477,-1.131 -1.802,-2.144c-0.146,0.013 -0.291,0.027 -0.436,0.039c-0.504,0.592 -1.413,1.131 -2.582,1.41c-0.052,0.876 -0.069,1.711 0,2.436c0.023,0.321 0.07,0.592 0.102,0.847" style="fill:#4fb3cf;fill-rule:nonzero;"/><path d="M478.183,92.572c0.03,-0.137 0.063,-0.395 0.115,-0.726c0.021,-0.229 0.051,-0.483 0.083,-0.773c0.035,-0.243 0.072,-0.513 0.093,-0.785c0.063,-0.5 0.117,-1.06 0.184,-1.576l-0.429,-0.136c-1.015,-0.377 -1.611,-1.299 -1.911,-2.464l-0.036,-0.013c-0.518,0.936 -2.146,1.859 -4.198,1.968c-0.068,0.768 -0.099,1.51 -0.068,2.188c0,0.305 0.021,0.575 0.053,0.834c0.031,0.32 0.086,0.589 0.136,0.847c0.19,0.738 0.48,1.254 0.952,1.422c0.253,0.086 0.518,0.163 0.774,0.21c0.29,0.075 0.566,0.104 0.851,0.122l0.074,0l0.259,0.015c0.188,0 0.357,-0.015 0.533,-0.033l0.1,0c0.326,-0.046 0.625,-0.104 0.883,-0.194c0.909,-0.258 1.477,-0.713 1.552,-0.906" style="fill:#4fb3cf;fill-rule:nonzero;"/><path d="M463.191,105.119l0.394,0.124c0.274,0.092 0.566,0.166 0.86,0.178l0.069,0.017c0.207,0.029 0.427,0.046 0.635,0.046l0.138,0l0.085,-0.017c0.306,0 0.606,-0.046 0.881,-0.105c1.15,-0.222 1.873,-0.784 1.958,-1.031c0.054,-0.236 0.122,-0.784 0.189,-1.477c0.032,-0.243 0.07,-0.495 0.089,-0.772c0.034,-0.261 0.065,-0.531 0.086,-0.788c0.037,-0.225 0.067,-0.436 0.088,-0.664c-0.33,-0.072 -0.656,-0.166 -0.965,-0.285c-1.015,-0.38 -1.598,-1.271 -1.915,-2.424c-0.753,0.682 -2.066,1.243 -3.612,1.331c-0.069,0.682 -0.116,1.351 -0.116,1.986c-0.021,0.272 -0.021,0.543 0,0.798c0,0.289 0.012,0.562 0.047,0.818l0,0.015c0.122,1.165 0.465,2.027 1.089,2.25" style="fill:#4fb3cf;fill-rule:nonzero;"/><path d="M471.329,100.748c-0.032,0.49 -0.071,0.974 -0.071,1.439c-0.013,0.273 -0.013,0.561 0,0.817c0,0.288 0.021,0.559 0.052,0.819c0.122,1.179 0.447,2.039 1.069,2.267l0.394,0.125c0.295,0.086 0.565,0.146 0.865,0.178l0.376,0.027l0.325,0.021l0.158,0l0,-0.021l0.411,-0.013c0.311,-0.031 0.602,-0.092 0.857,-0.166c0.969,-0.257 1.589,-0.741 1.638,-0.937c0.069,-0.347 0.206,-1.395 0.328,-2.543c0.033,-0.256 0.054,-0.523 0.064,-0.782c0.034,-0.14 0.053,-0.257 0.053,-0.377l0,-0.017c-0.325,-0.064 -0.648,-0.152 -0.964,-0.274c-0.459,-0.169 -0.84,-0.453 -1.136,-0.835c-0.374,-0.437 -0.617,-1.024 -0.788,-1.674c-0.463,0.862 -1.842,1.709 -3.631,1.946" style="fill:#4fb3cf;fill-rule:nonzero;"/><path d="M453.395,70.37l0.142,0l0.409,-0.03l0.482,-0.076l0.897,-0.257c0.42,-0.269 0.648,-0.423 0.818,-0.537c-1.138,-0.639 -2.275,-1.432 -3.403,-2.38c-0.057,1 -0.116,2.05 -0.168,3.198c0.168,0.022 0.326,0.058 0.499,0.067l0.324,0.015Z" style="fill:#4fb3cf;fill-rule:nonzero;"/><path d="M492.531,142.492c0.06,0.311 0.152,0.611 0.257,0.858c0.214,0.507 0.479,0.867 0.835,1.003l0.091,0.051c0.176,0.054 0.354,0.102 0.53,0.126c0.288,0.056 0.572,0.099 0.849,0.115l0.027,0c-0.116,-1.708 -0.245,-3.521 -0.374,-5.423c-0.651,0.416 -1.496,0.756 -2.486,0.902c0.039,0.865 0.113,1.68 0.271,2.368" style="fill:#4fb3cf;fill-rule:nonzero;"/><path d="M490.73,151.491l0.311,-0.003l0.227,-0.024l0.36,-0.037c0.32,-0.051 0.607,-0.13 0.858,-0.233c0.927,-0.317 1.49,-0.816 1.531,-1.028c0.017,-0.191 0.038,-0.585 0.07,-1.078c0,-0.233 0.013,-0.507 0.027,-0.792c0.015,-0.244 0.031,-0.523 0.041,-0.793c0.017,-0.47 0.028,-0.972 0.028,-1.444c-0.346,-0.042 -0.681,-0.126 -1.018,-0.228c-0.986,-0.287 -1.637,-1.094 -2.046,-2.148l-0.265,-0.062c0,0.182 -0.021,0.32 -0.031,0.426c-0.123,0.927 -1.404,2.006 -3.23,2.449c0.016,0.878 0.08,1.723 0.222,2.441c0.022,0.314 0.097,0.601 0.184,0.856c0.098,0.354 0.228,0.65 0.402,0.896c0.172,0.298 0.391,0.496 0.66,0.572l0.476,0.12c0.279,0.062 0.554,0.086 0.851,0.097l0,0.021l0.342,-0.008Z" style="fill:#4fb3cf;fill-rule:nonzero;"/><path d="M455.205,74.741c0.152,0.956 0.477,1.634 1.012,1.83c0.329,0.12 0.652,0.212 0.998,0.272c0.276,0.06 0.57,0.092 0.861,0.092l0.1,0l0.434,-0.02l0.346,-0.044c0.203,-0.011 0.394,-0.058 0.566,-0.102c0.362,-0.092 0.673,-0.212 0.929,-0.35l0.29,-0.167c0.313,-0.181 0.484,-0.362 0.518,-0.468l0.033,-0.152c0.016,-0.18 0.07,-0.452 0.105,-0.768c0.05,-0.415 0.105,-0.908 0.156,-1.456c-0.742,-0.043 -1.465,-0.196 -2.167,-0.454c-1.021,-0.375 -1.601,-1.268 -1.93,-2.402c-0.549,0.468 -1.359,0.892 -2.328,1.123c-0.033,0.481 -0.048,0.952 -0.048,1.404c0,0.286 0.015,0.557 0.032,0.815c0.016,0.306 0.057,0.589 0.093,0.847" style="fill:#4fb3cf;fill-rule:nonzero;"/><path d="M482.583,99.118c0.037,-0.179 0.081,-0.576 0.153,-1.073c0.019,-0.228 0.054,-0.5 0.085,-0.785c0.037,-0.241 0.067,-0.517 0.109,-0.787c0.043,-0.47 0.1,-0.969 0.135,-1.435c-0.343,-0.066 -0.676,-0.17 -1,-0.29c-0.962,-0.346 -1.545,-1.193 -1.875,-2.268l-0.256,-0.074c-0.016,0.181 -0.053,0.317 -0.068,0.423c-0.195,0.919 -1.548,1.919 -3.408,2.25c-0.048,0.878 -0.048,1.726 0.032,2.45c0,0.322 0.052,0.608 0.127,0.862c0.069,0.365 0.166,0.669 0.323,0.926c0.156,0.299 0.361,0.516 0.621,0.603l0.462,0.151c0.276,0.078 0.552,0.122 0.845,0.155l0,0.014l0.338,0.012l0.309,0.014l0.228,-0.014l0.364,-0.012c0.324,-0.034 0.617,-0.091 0.878,-0.182c0.946,-0.256 1.544,-0.729 1.598,-0.94" style="fill:#4fb3cf;fill-rule:nonzero;"/><path d="M478.576,78.762c0.293,-0.193 0.463,-0.363 0.498,-0.464l0.034,-0.155c0.019,-0.18 0.068,-0.454 0.098,-0.79c0.105,-0.796 0.241,-1.96 0.349,-3.069c-0.465,-0.07 -0.951,-0.21 -1.393,-0.377c-1.001,-0.36 -1.585,-1.252 -1.898,-2.385l-0.207,-0.078c-0.031,0.242 -0.067,0.436 -0.085,0.564c-0.166,0.842 -1.343,1.767 -3.008,2.172c-0.083,1.195 -0.067,2.345 0.105,3.236c0.049,0.346 0.148,0.654 0.269,0.907c0.177,0.381 0.401,0.649 0.706,0.758c0.641,0.229 1.31,0.345 1.962,0.345l0.276,-0.012l0.159,0c0.254,-0.019 0.5,-0.059 0.72,-0.104l0.176,-0.046c0.355,-0.093 0.67,-0.214 0.928,-0.334l0.311,-0.168Z" style="fill:#4fb3cf;fill-rule:nonzero;"/><path d="M481.909,110.008c0.05,-0.319 0.172,-1.21 0.296,-2.255c-0.311,-0.075 -0.619,-0.167 -0.913,-0.274c-1.169,-0.438 -1.777,-1.585 -2.028,-3.005c-0.069,0.497 -0.122,0.877 -0.156,1.085c-0.173,0.906 -1.514,1.909 -3.36,2.239c0.058,1.539 0.377,2.72 1.123,2.998c0.652,0.223 1.312,0.343 1.979,0.343c1.765,0 2.956,-0.844 3.059,-1.131" style="fill:#4fb3cf;fill-rule:nonzero;"/><path d="M473.643,116.001c0.657,0.206 1.316,0.288 1.984,0.249l0.069,-0.007c0.243,-0.01 0.461,-0.038 0.669,-0.082l0.215,-0.055c0.713,-0.168 1.279,-0.474 1.614,-0.737c0.237,-0.178 0.378,-0.338 0.402,-0.446l0.017,-0.227c0.025,-0.308 0.04,-0.81 0.072,-1.386c-0.847,0.051 -1.668,-0.071 -2.496,-0.309c-1.058,-0.329 -1.731,-1.229 -2.111,-2.402c-0.272,0.588 -0.947,1.204 -1.877,1.639c0.075,1.207 0.258,2.274 0.604,2.969c0.222,0.409 0.501,0.693 0.838,0.794" style="fill:#4fb3cf;fill-rule:nonzero;"/><path d="M467.264,96.581c0.035,0.299 0.074,0.588 0.14,0.84c0.069,0.35 0.171,0.669 0.311,0.914c0.152,0.3 0.377,0.524 0.638,0.617l0.476,0.15c0.278,0.089 0.571,0.135 0.849,0.166l0.068,0l0,0.015c0.191,0.016 0.38,0.035 0.572,0.035l0.238,-0.019l0.081,0l0.898,-0.121c1.486,-0.589 1.796,-0.86 1.843,-1.014l0.012,-0.046c0.019,-0.147 0.076,-0.423 0.112,-0.767c0.03,-0.231 0.067,-0.5 0.104,-0.79c0.044,-0.449 0.114,-0.953 0.15,-1.467c-0.425,-0.075 -0.858,-0.196 -1.277,-0.346c-1.032,-0.38 -1.614,-1.316 -1.923,-2.512c-0.415,0.802 -1.674,1.601 -3.307,1.892c-0.048,0.88 -0.048,1.724 0.015,2.453" style="fill:#4fb3cf;fill-rule:nonzero;"/><path d="M469.244,72.517c0.383,0.153 0.776,0.245 1.175,0.305c0.256,0.046 0.53,0.061 0.787,0.061l0.139,0c0.293,-0.015 0.55,-0.034 0.792,-0.091l0.106,-0.016c0.32,-0.06 0.637,-0.149 0.889,-0.272c0.674,-0.258 1.089,-0.609 1.14,-0.77c0.034,-0.166 0.081,-0.454 0.137,-0.846c0.016,-0.231 0.049,-0.488 0.088,-0.775c0.018,-0.188 0.044,-0.383 0.059,-0.577c-1.913,0.899 -3.97,1.612 -6.111,1.996c0.182,0.499 0.441,0.851 0.799,0.985" style="fill:#4fb3cf;fill-rule:nonzero;"/><path d="M468.779,84.904c0.103,0.394 0.257,0.725 0.433,0.953c0.119,0.15 0.241,0.256 0.395,0.316l0.087,0.045c0.243,0.093 0.498,0.166 0.756,0.228l0.089,0.015c0.254,0.062 0.512,0.089 0.771,0.106l0.101,0l0.246,0.015c0.221,0 0.427,-0.015 0.619,-0.032c1.341,-0.284 1.923,-0.602 2.371,-0.998l0.073,-0.121c0.03,-0.133 0.063,-0.343 0.101,-0.633c0.035,-0.228 0.076,-0.487 0.097,-0.791c0.114,-0.902 0.229,-2.063 0.352,-3.114c-0.64,-0.042 -1.274,-0.194 -1.892,-0.423c-0.861,-0.317 -1.411,-1.009 -1.741,-1.902l-0.502,-0.17c-0.477,0.546 -1.322,1.046 -2.356,1.321c-0.203,1.526 -0.291,3.094 -0.138,4.319c0.021,0.304 0.067,0.605 0.138,0.866" style="fill:#4fb3cf;fill-rule:nonzero;"/><path d="M480.167,138.048c0.254,0.08 0.516,0.138 0.778,0.185l0.083,0.009c0.264,0.042 0.528,0.059 0.778,0.059l0.109,-0.008l0.243,0.005c0.221,-0.017 0.429,-0.04 0.609,-0.065c1.327,-0.364 1.883,-0.719 2.301,-1.136l0.058,-0.13c0.023,-0.136 0.043,-0.351 0.049,-0.636c0.019,-0.228 0.038,-0.491 0.049,-0.788c0.033,-0.915 0.06,-2.081 0.104,-3.13c-0.637,-0.009 -1.288,-0.119 -1.92,-0.317c-0.886,-0.263 -1.487,-0.925 -1.883,-1.792l-0.51,-0.14c-0.438,0.57 -1.242,1.122 -2.247,1.449c-0.092,1.537 -0.06,3.112 0.187,4.329c0.043,0.296 0.119,0.596 0.207,0.848c0.133,0.389 0.313,0.711 0.499,0.926c0.134,0.145 0.259,0.243 0.421,0.297l0.085,0.035Z" style="fill:#4fb3cf;fill-rule:nonzero;"/><path d="M490.521,71.458l-0.315,0.017c-0.031,0.227 -0.068,0.44 -0.083,0.665c-0.104,0.893 -0.175,1.767 -0.175,2.601l0,0.046c0,1.242 0.156,2.329 0.537,2.948l0.188,0.255c0.125,0.14 0.257,0.232 0.415,0.289c0.164,0.063 0.333,0.105 0.502,0.154c-0.071,-2.427 -0.134,-4.803 -0.182,-7.123c-0.291,0.057 -0.572,0.13 -0.887,0.148" style="fill:#4fb3cf;fill-rule:nonzero;"/><path d="M454.547,103.58l0.412,0.137l0.413,0.092l0,0.014l0.449,0.06l0.416,0.045l0.289,0.014l0.14,0l0.43,-0.032c1.462,-0.146 2.427,-0.859 2.495,-1.116c0.034,-0.155 0.066,-0.408 0.106,-0.741c0.032,-0.231 0.064,-0.485 0.1,-0.772c0.02,-0.241 0.052,-0.5 0.087,-0.77c0.048,-0.452 0.098,-0.941 0.157,-1.42c-0.333,-0.077 -0.655,-0.173 -0.987,-0.289c-1.079,-0.397 -1.682,-1.407 -1.982,-2.676l-1.441,-0.487c-0.518,0.291 -1.168,0.531 -1.875,0.668c-0.188,1.115 -0.312,2.296 -0.328,3.371c-0.011,0.188 -0.004,0.361 0,0.536c0.077,0.706 0.16,1.413 0.25,2.126c0.177,0.626 0.455,1.085 0.869,1.24" style="fill:#4fb3cf;fill-rule:nonzero;"/><path d="M460.897,126.377c0.289,-0.196 0.451,-0.389 0.473,-0.499l0.027,-0.15c0.001,-0.182 0.032,-0.458 0.043,-0.778l0.012,-0.286c-0.434,-0.051 -0.876,-0.148 -1.295,-0.274c-1.562,-0.465 -2.261,-2.175 -2.521,-4.113c-0.094,0.177 -0.221,0.352 -0.38,0.524c0.585,2.124 1.245,4.216 1.975,6.271c0.163,-0.035 0.336,-0.059 0.482,-0.11c0.352,-0.11 0.655,-0.25 0.897,-0.4l0.287,-0.185Z" style="fill:#4fb3cf;fill-rule:nonzero;"/><path d="M455.308,93.918l0.064,-0.107c0.031,-0.212 0.106,-0.695 0.169,-1.301c-0.309,-0.075 -0.598,-0.17 -0.889,-0.274c-1.266,-0.464 -1.85,-1.759 -2.085,-3.317c0.089,1.947 0.208,3.943 0.369,5.971c0.072,-0.006 0.154,-0.006 0.22,-0.021c0.55,-0.075 1.014,-0.241 1.374,-0.426c0.394,-0.177 0.676,-0.39 0.778,-0.525" style="fill:#4fb3cf;fill-rule:nonzero;"/><path d="M488.609,57.027c0.14,0.011 0.287,0.037 0.429,0.037c0.307,0 0.618,-0.03 0.897,-0.077l0.064,-0.015c0.33,-0.06 0.638,-0.151 0.896,-0.256c0.159,-0.055 0.295,-0.122 0.424,-0.186c0.031,-2.38 0.089,-4.609 0.176,-6.658l-0.816,-0.273c-0.41,2.363 -1.109,4.826 -2.07,7.428" style="fill:#4fb3cf;fill-rule:nonzero;"/><path d="M453.308,82.196l0.329,0.013l0.276,-0.013c0.669,-0.03 1.255,-0.181 1.703,-0.362c0.397,-0.167 0.703,-0.347 0.892,-0.514l0.208,-0.242c0.069,-0.365 0.207,-1.485 0.33,-2.725c-0.499,-0.073 -0.998,-0.21 -1.482,-0.373c-1.394,-0.519 -1.982,-2.058 -2.153,-3.841l-0.308,-0.108c-0.178,0.2 -0.41,0.391 -0.676,0.568c-0.056,2.315 -0.078,4.816 -0.048,7.458c0.024,0.004 0.045,0.013 0.069,0.02c0.188,0.041 0.383,0.073 0.582,0.102l0.278,0.017Z" style="fill:#4fb3cf;fill-rule:nonzero;"/><path d="M454.495,83.662c-0.121,0.76 -0.206,1.545 -0.257,2.299c-0.017,0.273 -0.034,0.543 -0.034,0.802l0,0.015c-0.016,0.271 -0.016,0.546 -0.016,0.8c0.033,1.663 0.342,2.983 1.137,3.269l0.392,0.122c0.296,0.089 0.567,0.147 0.867,0.179c0.152,0.028 0.306,0.044 0.445,0.044l0.254,0.017l0.156,0c0.176,0 0.309,-0.017 0.462,-0.033c0.33,-0.045 0.641,-0.102 0.895,-0.195c0.912,-0.255 1.5,-0.708 1.555,-0.923c0.03,-0.133 0.067,-0.393 0.118,-0.711c0.016,-0.225 0.052,-0.481 0.092,-0.771c0.028,-0.238 0.061,-0.509 0.078,-0.784l0.017,0c0.054,-0.502 0.105,-1.044 0.155,-1.589l-0.409,-0.136c-1.031,-0.378 -1.62,-1.299 -1.928,-2.465l-1.721,-0.59c-0.638,0.335 -1.396,0.559 -2.258,0.65" style="fill:#4fb3cf;fill-rule:nonzero;"/><path d="M457.583,115.978l0.393,-0.035c0.183,-0.029 0.352,-0.067 0.523,-0.109c0.32,-0.084 0.625,-0.19 0.877,-0.309c0.58,-0.251 0.96,-0.572 1.079,-0.763l0.062,-0.106c0.023,-0.143 0.043,-0.356 0.056,-0.64c0.017,-0.233 0.033,-0.492 0.042,-0.793c0.017,-0.411 0.036,-0.88 0.048,-1.368c-0.823,0.036 -1.643,-0.07 -2.437,-0.31c-1.481,-0.446 -2.172,-2.023 -2.47,-3.871l-0.173,-0.052c-0.217,0.327 -0.585,0.64 -1.009,0.921c0.408,2.435 0.879,4.871 1.433,7.291c0.079,0.016 0.158,0.046 0.24,0.054c0.278,0.061 0.578,0.09 0.871,0.085l0.43,0.008l0.035,-0.003Z" style="fill:#4fb3cf;fill-rule:nonzero;"/><path d="M491.107,155.702c-0.031,0.499 -0.052,0.882 -0.072,1.094c-0.092,0.797 -1.067,1.723 -2.516,2.237c1.81,0.56 3.708,1.012 5.698,1.345c0.026,-0.425 0.056,-0.967 0.079,-1.578c-0.32,-0.056 -0.63,-0.125 -0.938,-0.215c-1.197,-0.37 -1.885,-1.483 -2.251,-2.883" style="fill:#4fb3cf;fill-rule:nonzero;"/><path d="M471.135,142.43c0.024,-0.137 0.038,-0.396 0.072,-0.713c0,-0.231 0.011,-0.488 0.031,-0.775c0.01,-0.245 0.021,-0.518 0.021,-0.795l0.012,0c0.018,-0.496 0.026,-1.043 0.04,-1.593l-0.425,-0.11c-1.063,-0.314 -1.715,-1.201 -2.108,-2.347l-1.767,-0.485c-0.608,0.37 -1.349,0.636 -2.199,0.783c-0.063,0.761 -0.086,1.548 -0.086,2.305c0.004,0.149 0.013,0.286 0.015,0.43c0.934,1.597 1.929,3.15 3.001,4.622c0.057,0 0.115,0.013 0.174,0.011l0.256,0l0.153,-0.013c0.171,-0.008 0.307,-0.034 0.459,-0.059c0.323,-0.064 0.625,-0.142 0.879,-0.251c0.893,-0.307 1.441,-0.795 1.472,-1.01" style="fill:#4fb3cf;fill-rule:nonzero;"/><path d="M489.313,156.64c0.048,-0.353 0.105,-1.403 0.137,-2.554c0.013,-0.26 0.009,-0.529 0.005,-0.79c0.025,-0.135 0.031,-0.261 0.025,-0.381l-0.007,-0.015c-0.328,-0.039 -0.66,-0.112 -0.974,-0.214c-0.479,-0.139 -0.875,-0.402 -1.199,-0.761c-0.415,-0.416 -0.695,-0.991 -0.915,-1.634c-0.399,0.891 -1.708,1.816 -3.478,2.162c0.002,0.488 0.008,0.973 0.037,1.441c0.003,0.276 0.026,0.557 0.068,0.813c0.021,0.284 0.056,0.555 0.113,0.809c0.127,0.71 0.332,1.272 0.606,1.671c0.549,0.25 1.099,0.494 1.666,0.727c0.081,0.005 0.157,0.03 0.237,0.032l0.382,0.008l0.329,-0.008l0.155,-0.002l-0.003,-0.018l0.414,-0.036c0.302,-0.051 0.593,-0.132 0.843,-0.22c0.947,-0.314 1.525,-0.834 1.559,-1.03" style="fill:#4fb3cf;fill-rule:nonzero;"/><path d="M495.561,150.798c-0.41,0.805 -1.559,1.629 -3.088,1.987c0.013,0.178 0.011,0.363 0.04,0.542c0.008,0.285 0.024,0.559 0.066,0.816c0.017,0.285 0.055,0.559 0.111,0.813c0.204,1.155 0.601,2.009 1.236,2.2l0.425,0.098c0.276,0.073 0.56,0.117 0.855,0.127c0.237,0.018 0.461,0.021 0.705,0.003l0.134,-0.006c-0.128,-1.65 -0.291,-3.879 -0.484,-6.58" style="fill:#4fb3cf;fill-rule:nonzero;"/><path d="M476.033,148.72l0.011,-0.078c0.023,-0.165 0.036,-0.441 0.061,-0.778c0.017,-0.438 0.046,-0.982 0.071,-1.561c-0.605,-0.043 -1.215,-0.137 -1.833,-0.314c-1.038,-0.322 -1.679,-1.175 -2.089,-2.306c-0.559,0.581 -1.505,1.107 -2.638,1.37c0.006,0.397 0.023,0.783 0.048,1.156c1.117,1.344 2.305,2.621 3.561,3.817l0.062,-0.008c0.174,-0.008 0.322,-0.033 0.48,-0.056c0.729,-0.145 1.308,-0.411 1.705,-0.693c0.348,-0.217 0.535,-0.429 0.561,-0.549" style="fill:#4fb3cf;fill-rule:nonzero;"/><path d="M484.755,149.753l0.011,-0.046c0.006,-0.151 0.04,-0.424 0.044,-0.778c0.018,-0.222 0.035,-0.499 0.048,-0.785c0.011,-0.46 0.046,-0.966 0.042,-1.474c-0.437,-0.053 -0.875,-0.147 -1.3,-0.274c-1.06,-0.32 -1.709,-1.217 -2.11,-2.391c-0.353,0.823 -1.544,1.698 -3.152,2.081c0.011,0.877 0.071,1.721 0.197,2.44c0.061,0.304 0.116,0.585 0.203,0.838c0.095,0.343 0.221,0.654 0.378,0.887c0.179,0.293 0.419,0.507 0.686,0.58l0.487,0.126c0.285,0.072 0.58,0.099 0.86,0.112l0.067,0l0,0.011c0.193,0.005 0.376,0.012 0.569,0l0.242,-0.032l0.083,-0.002l0.882,-0.176c1.434,-0.672 1.72,-0.964 1.763,-1.117" style="fill:#4fb3cf;fill-rule:nonzero;"/><path d="M477.161,149.96c-0.544,0.56 -1.434,1.063 -2.524,1.347c1.711,1.47 3.53,2.805 5.494,3.98c0.006,-0.173 0.018,-0.357 0.018,-0.564c0.018,-0.241 0.03,-0.499 0.025,-0.772c0.014,-0.263 0.03,-0.534 0.03,-0.788c0.017,-0.232 0.031,-0.44 0.031,-0.672c-0.331,-0.056 -0.666,-0.125 -0.977,-0.23c-1.044,-0.317 -1.697,-1.177 -2.097,-2.301" style="fill:#4fb3cf;fill-rule:nonzero;"/><path d="M466.646,133.937l0.186,-0.253c0.042,-0.369 0.096,-1.496 0.119,-2.738c-0.505,-0.046 -1.014,-0.148 -1.506,-0.289c-1.426,-0.435 -2.13,-1.938 -2.44,-3.705l-0.317,-0.086c-0.44,0.567 -1.227,1.117 -2.233,1.459c-0.037,0.642 -0.051,1.283 -0.037,1.908c0.638,1.587 1.331,3.144 2.067,4.664c0.054,0.009 0.109,0.024 0.165,0.035c0.195,0.03 0.386,0.051 0.592,0.068l0.276,-0.001l0.325,-0.006l0.274,-0.028c0.665,-0.068 1.236,-0.258 1.675,-0.462c0.383,-0.193 0.674,-0.392 0.854,-0.566" style="fill:#4fb3cf;fill-rule:nonzero;"/><path d="M470.44,135.755c0.133,0.389 0.316,0.713 0.499,0.931c0.128,0.14 0.262,0.24 0.42,0.289l0.089,0.043l0.386,0.097l0.388,0.085l0.487,0.046l0.381,0.02l0.347,-0.003l0.12,-0.008c0.875,-0.065 1.575,-0.329 2.07,-0.639c0.379,-0.199 0.637,-0.426 0.733,-0.585l0.047,-0.094c0.019,-0.139 0.042,-0.364 0.052,-0.673c0.041,-0.788 0.101,-2.047 0.113,-3.262c-0.814,0.03 -1.629,-0.082 -2.405,-0.314c-1.046,-0.318 -1.695,-1.187 -2.092,-2.314c-0.447,0.48 -1.153,0.915 -2.03,1.209c-0.109,1.539 -0.056,3.114 0.192,4.324c0.041,0.303 0.116,0.601 0.203,0.848" style="fill:#4fb3cf;fill-rule:nonzero;"/><path d="M464.684,126.605c0.042,0.306 0.098,0.59 0.149,0.843c0.227,0.941 0.612,1.603 1.157,1.764c0.336,0.102 0.669,0.18 1.018,0.215c0.278,0.043 0.57,0.059 0.863,0.042l0.103,-0.008l0.426,-0.039l0.347,-0.063c0.2,-0.029 0.385,-0.085 0.553,-0.144c0.353,-0.113 0.654,-0.242 0.907,-0.405l0.275,-0.175c0.292,-0.203 0.453,-0.391 0.479,-0.501l0.022,-0.153c0.005,-0.182 0.038,-0.456 0.048,-0.773c0.016,-0.412 0.033,-0.912 0.044,-1.459c-0.747,-0.003 -1.478,-0.11 -2.2,-0.322c-1.043,-0.324 -1.696,-1.177 -2.107,-2.288c-0.513,0.497 -1.287,0.968 -2.236,1.252c0.007,0.486 0.022,0.953 0.059,1.404c0.021,0.29 0.06,0.565 0.093,0.81" style="fill:#4fb3cf;fill-rule:nonzero;"/><path d="M473.557,141.564c0.024,0.284 0.06,0.572 0.118,0.823c0.205,1.143 0.59,1.969 1.232,2.152c0.42,0.131 0.858,0.213 1.29,0.233l0.441,0.018l0.254,0l0.186,-0.023l0.426,-0.041l0.442,-0.105c0.17,-0.04 0.319,-0.091 0.454,-0.148c0.888,-0.324 1.424,-0.81 1.456,-1.007c0.026,-0.138 0.039,-0.4 0.063,-0.719c0,-0.223 0.021,-0.488 0.038,-0.776c0.013,-0.244 0.028,-0.515 0.039,-0.788c0.012,-0.515 0.023,-1.065 0.056,-1.596l-0.447,-0.11c-1.039,-0.311 -1.675,-1.175 -2.091,-2.288c-0.78,0.791 -2.228,1.483 -3.969,1.583l-0.078,0.005c-0.034,0.683 -0.016,1.349 0.025,1.968c0.01,0.292 0.026,0.563 0.065,0.819" style="fill:#4fb3cf;fill-rule:nonzero;"/><path d="M458.782,95.884c0.067,0.36 0.174,0.664 0.309,0.922c0.176,0.302 0.38,0.509 0.639,0.602l0.483,0.152l0.444,0.106l0.396,0.061c0.153,0.028 0.325,0.044 0.482,0.028l0.154,0.016l0.224,-0.016c0.174,0 0.329,-0.012 0.483,-0.028c0.737,-0.107 1.347,-0.332 1.756,-0.59c0.362,-0.195 0.569,-0.395 0.601,-0.513l0.019,-0.076c0.036,-0.166 0.066,-0.436 0.117,-0.768c0.052,-0.442 0.121,-0.986 0.189,-1.561c-0.598,-0.077 -1.199,-0.213 -1.802,-0.424c-1.018,-0.376 -1.587,-1.268 -1.914,-2.419c-0.601,0.545 -1.584,1.013 -2.734,1.21c-0.055,0.875 -0.055,1.71 0.015,2.453c0.017,0.299 0.07,0.586 0.139,0.845" style="fill:#4fb3cf;fill-rule:nonzero;"/><path d="M459.237,118.018c0.021,0.273 0.029,0.541 0.029,0.799c0.008,0.289 0.022,0.544 0.045,0.806c0.15,1.736 0.564,3.085 1.387,3.338c0.266,0.077 0.534,0.139 0.809,0.169c0.28,0.059 0.575,0.069 0.865,0.069l0.33,-0.002l0.143,-0.008l0.403,-0.056l0.473,-0.108l0.879,-0.306c1.023,-0.759 1.055,-0.805 1.068,-0.852c0.025,-0.151 0.034,-0.46 0.059,-0.833c0.02,-0.233 0.015,-0.501 0.025,-0.793c0.018,-0.245 0.032,-0.503 0.025,-0.774c0.026,-0.409 0.044,-0.833 0.044,-1.273c-0.452,-0.051 -0.909,-0.148 -1.344,-0.276c-1.148,-0.333 -1.813,-1.358 -2.207,-2.654l-0.004,-0.014l-0.141,-0.037c-0.355,0.778 -1.41,1.58 -2.859,2c-0.018,0.275 -0.012,0.549 -0.029,0.805" style="fill:#4fb3cf;fill-rule:nonzero;"/><path d="M489.859,79.395c-0.477,0.533 -1.281,1.006 -2.304,1.274c-0.2,1.541 -0.287,3.104 -0.132,4.322c0.016,0.321 0.066,0.61 0.132,0.865c0.105,0.394 0.241,0.711 0.434,0.952c0.116,0.152 0.254,0.275 0.413,0.333l0.068,0.047c0.209,0.077 0.393,0.119 0.6,0.165l0.158,0.045c0.235,0.059 0.479,0.092 0.719,0.12l0.144,0l0.352,0.013l0.371,-0.013c0.396,-0.025 0.755,-0.093 1.078,-0.185c-0.093,-2.477 -0.178,-4.922 -0.255,-7.332c-0.408,-0.076 -0.814,-0.178 -1.22,-0.327c-0.211,-0.082 -0.384,-0.169 -0.558,-0.279" style="fill:#4fb3cf;fill-rule:nonzero;"/><path d="M458.093,109.824c0.631,0.242 1.309,0.362 1.962,0.362c1.778,0 2.976,-0.849 3.065,-1.146c0.072,-0.317 0.166,-1.212 0.29,-2.254c-0.29,-0.076 -0.602,-0.17 -0.891,-0.275c-1.017,-0.375 -1.605,-1.281 -1.91,-2.416c-0.76,0.677 -2.067,1.256 -3.635,1.327c-0.106,2.178 0.156,4.057 1.119,4.402" style="fill:#4fb3cf;fill-rule:nonzero;"/><path d="M482.909,142.77c0.058,0.312 0.132,0.58 0.206,0.837c0.246,0.728 0.578,1.224 1.049,1.362c0.265,0.074 0.527,0.135 0.792,0.167c0.295,0.056 0.576,0.07 0.87,0.07l0.058,-0.007l0.265,0c0.191,-0.01 0.361,-0.036 0.53,-0.058l0.085,-0.005l0.02,0c0.324,-0.067 0.608,-0.147 0.858,-0.254c0.896,-0.309 1.422,-0.795 1.481,-0.994c0.021,-0.136 0.031,-0.396 0.059,-0.731c0.004,-0.226 0.019,-0.486 0.029,-0.778c0.017,-0.24 0.027,-0.513 0.027,-0.787c0.03,-0.498 0.039,-1.064 0.072,-1.577l-0.446,-0.113c-1.042,-0.318 -1.707,-1.201 -2.091,-2.349l-0.032,-0.011c-0.448,0.966 -2.007,1.982 -4.043,2.209c-0.015,0.772 0.013,1.514 0.099,2.186c0.019,0.307 0.061,0.581 0.112,0.833" style="fill:#4fb3cf;fill-rule:nonzero;"/><path d="M491.155,103.2c0.48,0.17 0.974,0.259 1.467,0.304c-0.044,-0.863 -0.084,-1.728 -0.127,-2.589c-0.62,0.358 -1.397,0.644 -2.29,0.775c0.177,0.781 0.469,1.329 0.95,1.51" style="fill:#4fb3cf;fill-rule:nonzero;"/><path d="M492.092,131.071l-0.02,-0.013l-1.808,-0.483c-0.441,0.573 -1.229,1.108 -2.239,1.448c-0.106,1.535 -0.074,3.126 0.192,4.327c0.036,0.315 0.116,0.601 0.217,0.85l0.006,0.017c0.113,0.383 0.296,0.694 0.5,0.923l0.404,0.294l0.086,0.044c0.25,0.077 0.508,0.123 0.759,0.163l0.343,0.041c0.176,0.018 0.367,0.039 0.539,0.029l0.342,-0.008c0.312,-0.016 0.601,-0.062 0.857,-0.123c1.272,-0.271 2.062,-0.938 2.112,-1.197c0.026,-0.174 0.051,-0.496 0.072,-0.902c0.009,-0.246 0.009,-0.501 0.027,-0.793c0.008,-0.113 0.008,-0.237 0.01,-0.357c-0.076,-1.154 -0.154,-2.332 -0.23,-3.539c-0.428,-0.048 -0.852,-0.125 -1.288,-0.256c-0.34,-0.105 -0.627,-0.25 -0.881,-0.465" style="fill:#4fb3cf;fill-rule:nonzero;"/><path d="M491.928,90.467c0.032,0.01 0.064,0.017 0.092,0.027c-0.022,-0.535 -0.043,-1.069 -0.06,-1.601c-0.309,0.062 -0.625,0.104 -0.963,0.125c0.158,0.756 0.47,1.284 0.931,1.449" style="fill:#4fb3cf;fill-rule:nonzero;"/><path d="M489.463,92.691l-0.013,0.138c-0.049,0.221 -0.152,0.454 -0.34,0.679c-0.553,0.695 -1.671,1.332 -3.086,1.571c-0.047,0.878 -0.047,1.726 0.017,2.45c0.034,0.306 0.066,0.589 0.119,0.848c0.087,0.36 0.194,0.682 0.33,0.922c0.156,0.301 0.38,0.534 0.634,0.62c0.159,0.059 0.315,0.108 0.485,0.152c0.228,0.062 0.468,0.108 0.71,0.135l0.135,0.02c0.224,0.026 0.43,0.04 0.656,0.04l0.06,0l0.157,-0.014c0.262,0 0.489,-0.026 0.707,-0.073c1.26,-0.212 2.048,-0.817 2.135,-1.061c0.043,-0.214 0.103,-0.699 0.175,-1.309c-0.072,-1.508 -0.136,-3.022 -0.204,-4.533l-2.617,-0.87l-0.06,0.285Z" style="fill:#4fb3cf;fill-rule:nonzero;"/><path d="M492.973,129.714l0.015,0.018c0.154,0.186 0.336,0.314 0.547,0.376c0.204,0.059 0.417,0.097 0.626,0.134c-0.121,-1.891 -0.244,-3.839 -0.362,-5.831c-0.464,0.343 -1.033,0.66 -1.717,0.872c0.006,1.891 0.259,3.636 0.891,4.431" style="fill:#4fb3cf;fill-rule:nonzero;"/><path d="M490.521,116.341l-1.148,-0.313c-0.375,0.705 -1.324,1.397 -2.568,1.804c-0.061,1.43 -0.009,2.851 0.217,3.961c0.058,0.314 0.135,0.598 0.219,0.851c0.151,0.399 0.348,0.721 0.592,0.931c0.112,0.133 0.255,0.217 0.409,0.265c0.302,0.091 0.605,0.163 0.901,0.209c0.292,0.04 0.588,0.053 0.882,0.04l0.207,0l0.139,-0.008c0.188,-0.01 0.357,-0.032 0.509,-0.064l0.372,-0.091c0.322,-0.086 0.627,-0.193 0.876,-0.328c0.647,-0.294 1.031,-0.665 1.073,-0.834c0.018,-0.171 0.033,-0.456 0.051,-0.856c0.018,-0.222 0.037,-0.485 0.046,-0.775c-0.003,-0.257 0.01,-0.51 0.027,-0.786c0.033,-0.831 0.058,-1.732 0.074,-2.532c-0.002,-0.08 -0.006,-0.156 -0.01,-0.234c-0.498,-0.047 -1.001,-0.138 -1.504,-0.286c-0.564,-0.163 -1.005,-0.502 -1.364,-0.954" style="fill:#4fb3cf;fill-rule:nonzero;"/><path d="M491.03,112.1c0.072,1.209 0.254,2.262 0.615,2.95c0.188,0.427 0.468,0.711 0.804,0.82c0.279,0.079 0.564,0.134 0.851,0.172c-0.115,-1.954 -0.223,-3.934 -0.332,-5.933c-0.093,0.699 -0.824,1.457 -1.938,1.991" style="fill:#4fb3cf;fill-rule:nonzero;"/><path d="M465.798,52.446c0,0 -3.022,-3.386 -0.37,-5.983c2.965,-2.903 8.402,1.048 6.634,3.962c-1.765,2.915 -4.123,3.275 -6.264,2.021" style="fill:#572700;"/><path d="M404.553,18.505c3.062,1.205 6.721,1.765 11.507,1.765c1.973,0 3.958,-0.093 5.822,-0.187c6.847,-0.342 13.928,-0.698 21.153,-0.698l1.019,0.003c0.951,0.002 1.911,0.006 2.869,0.006c8.473,0 15.535,-0.29 22.492,-1.696c8.326,-1.694 14.364,-4.243 20.065,-9.425c1.09,6.297 2.616,11.963 2.11,18.207c-0.24,2.9 -0.74,7.979 -0.821,10.936c-0.097,3.557 -0.442,5.543 -0.563,9.1c-0.224,6.498 -1.518,12.025 -1.597,18.643c-0.265,22.311 1.036,42.825 2.818,61.588c1.086,11.459 2.62,22.679 4.558,33.355c-2.701,0.595 -5.827,0.574 -9.207,0.574c-4.868,0 -9.854,-0.733 -14.622,-1.316l-2.133,-0.258c-2.038,-0.24 -4.093,-0.457 -6.142,-0.674c-5.868,-0.62 -11.836,-1.824 -17.63,-3.141c-13.37,-3.05 -24.182,-11.821 -31.944,-20.286c-15.469,-16.889 -18.16,-37.088 -18.5,-60.383c-0.112,-7.553 -0.934,-15.475 -0.934,-22.902c0,-13.484 2.116,-27.998 2.23,-29.462c0.243,-3.213 0.683,-6.289 1.315,-9.164c1.214,2.478 3.275,4.296 6.135,5.415m94.691,140.741c-7.56,-41.787 -7.072,-83.345 -5.92,-122.357c0.089,-3.105 0.354,-6.291 0.604,-9.374c0.621,-7.588 1.263,-15.434 -0.519,-23.037l0.527,-0.573l-0.658,0.073c-0.087,-0.234 -0.337,-0.601 -1.023,-0.601c-0.719,0 -1.72,0.423 -2.036,0.765c-0.061,0.066 -0.125,0.133 -0.183,0.197l-0.126,0.015l0.025,0.095c-5.385,5.721 -12.323,9.494 -20.641,11.229c-7.175,1.495 -14.641,1.622 -21.076,1.622c-0.928,0 -1.855,-0.004 -2.778,-0.007l-2.471,-0.008c-4.451,0 -10.318,0.054 -16.271,0.456l-1.076,0.074c-2.677,0.184 -5.44,0.377 -8.166,0.377c-2.891,0 -5.382,-0.221 -7.61,-0.671c-6.273,-1.274 -11.184,-7.088 -10.98,-13.192l0,-0.003l0,-0.01l-0.63,-0.863c-0.154,-0.05 -0.33,-0.076 -0.527,-0.076c-0.606,0 -1.545,0.273 -1.955,0.766l-0.17,0.02l-0.01,0.319c-1.795,4.889 -1.316,11.947 -1.771,17.971c-0.117,1.481 -0.106,2.986 -0.104,4.438c0.003,2.116 0.011,4.296 -0.358,6.407l-0.349,3.139c-0.026,5.461 -0.183,11.025 -0.331,16.416c-0.502,18.211 -1.019,37.04 3.048,55.125c2.82,12.562 7.446,22.577 14.137,30.617c7.377,8.851 18.303,15.391 31.612,18.908c7.275,1.923 14.888,2.744 22.252,3.537c1.936,0.207 3.868,0.417 5.798,0.642l1.295,0.156c5.058,0.598 10.198,0.761 15.391,1.115c4.836,0.332 9.003,0.824 12.472,-0.126c1.265,-0.348 1.392,-0.485 1.317,-0.898c-0.052,-0.288 -0.739,-2.683 -0.739,-2.683" style="fill:#f58025;fill-rule:nonzero;"/><path d="M492.486,1.573c-2.835,2.582 -6.322,5.676 -9.339,8.13c-6.378,5.169 -37.603,6.599 -37.603,6.599c0,0 -22.205,-2.207 -35.774,-2.13c-8.416,0.05 -13.026,-10.51 -13.026,-10.51c-1.457,17.753 20.145,28.261 29.727,32.879c10.581,5.099 18.919,19.309 18.919,19.309c2.352,-5.655 18.546,-17.349 18.546,-17.349c16.515,-9.251 27.161,-27.68 31.625,-36.738c0.09,-0.228 1.456,-3.726 -3.075,-0.19" style="fill:#f58025;"/></g><g><path d="M226.709,104.024l3.127,0c1.441,0 2.397,0 3.122,-0.212l3.36,-0.21l-0.481,-4.193c-0.719,-4.198 -0.961,-7.556 -1.2,-10.285c0,-0.626 0,-1.466 -0.242,-2.932c-0.237,-1.469 -0.237,-2.732 -0.237,-3.57l-1.444,-13.633c-0.718,-6.089 -1.2,-11.328 -1.681,-15.318c-0.479,-3.986 -1.197,-8.814 -2.157,-14.473c-0.721,-5.665 -1.681,-10.701 -2.881,-15.527c0,-0.21 -0.244,-0.424 -0.723,-0.424c-0.244,0 -0.486,0 -1.2,0.214l-1.206,0c-0.237,0 -0.479,0 -0.716,-0.214l-1.684,7.767c-1.199,6.503 -1.916,10.486 -2.401,12.375l-1.44,8.393c-0.235,1.889 -0.723,5.038 -0.962,9.234c-0.242,4.195 -0.479,6.715 -0.716,7.761l-1.439,11.536c-1.686,7.345 -2.646,14.898 -2.886,22.238l0,0.841c2.886,0.632 5.28,0.84 6.964,0.84c0.479,-0.208 1.202,-0.208 2.404,-0.208l6.719,0Zm14.17,43.217c-0.239,-1.053 -0.479,-4.196 -1.202,-9.022c-0.481,-4.828 -0.96,-7.765 -1.437,-11.33c-0.479,-3.565 -0.96,-5.454 -1.683,-5.877l-0.476,0c-0.244,0 -0.963,0 -2.165,0.215l-2.639,0l-1.202,0l-2.88,0c-1.444,-0.215 -2.648,-0.215 -3.604,-0.215l-1.918,0l-2.16,0c-1.209,-0.205 -1.927,-0.205 -2.648,-0.205c-0.475,0 -1.202,0 -2.16,0.205l-1.92,0c-3.123,0 -5.045,0.423 -5.764,1.049c-0.239,1.055 -0.96,5.666 -1.92,14.055c-1.442,8.396 -1.684,9.028 -1.921,10.497c0,1.464 -0.242,3.355 -0.481,5.664c-0.481,2.307 -0.963,4.611 -1.441,7.13l-1.2,4.826c-0.96,0.21 -2.16,0.418 -3.36,0.418l-1.2,0l-0.723,0l-2.88,0c-4.801,0 -7.207,-0.418 -7.447,-1.461l0,-0.427c0,-0.626 0.479,-2.307 0.96,-5.037c0.967,-2.727 1.205,-4.609 1.205,-5.449c0.716,-3.778 1.197,-5.452 2.159,-14.058c1.2,-8.603 1.681,-13.842 1.923,-15.523c0.24,-1.469 0.479,-3.36 0.958,-5.667c0.481,-2.521 0.723,-4.195 0.963,-5.241l0.72,-5.671l1.2,-7.549c0.239,-0.838 0.718,-3.357 0.962,-7.345c0,-0.623 0.238,-1.676 0.477,-3.357c0.242,-1.674 0.479,-2.933 0.723,-3.568l0.96,-6.708c1.921,-13.639 2.881,-20.77 2.881,-21.192l1.679,-8.181c0.239,-1.889 0.72,-4.618 1.681,-8.602c0,-0.632 0.481,-3.147 1.441,-7.973c0.721,-3.145 1.2,-6.498 1.681,-9.649l1.444,-8.602c0.481,-2.309 0.716,-3.777 0.955,-4.2c0.242,-0.205 0.482,-0.205 0.961,-0.205c0.241,0 0.72,0 1.441,0.205l2.644,0c0.955,-0.623 3.599,-0.838 7.921,-0.838c7.688,0 13.212,0.633 16.809,1.891c2.404,11.536 3.604,18.884 3.846,21.608l0.479,6.923l3.361,29.374c1.2,13.009 2.4,22.654 3.123,28.951l2.157,14.895c0.242,1.469 0.482,3.568 0.961,6.087l0.723,5.242c0.718,5.244 1.199,8.183 1.199,9.023l0,0.834c0,2.309 0.24,3.99 0.961,7.558c0.485,3.565 0.72,5.664 0.967,6.502c0,1.046 0,2.304 0.237,4.193l0.721,3.565c0.241,3.15 0.476,4.616 0.476,4.824l0,1.055c0,1.051 0.244,2.312 0.486,3.355c-0.242,0.21 -1.441,0.418 -4.087,0.628c-2.644,0.213 -5.524,0.418 -7.445,0.418c-2.634,0 -4.08,-0.205 -4.08,-0.836l0,-0.21c-0.718,-2.937 -1.681,-11.746 -2.402,-16.992" style="fill:#fcc615;fill-rule:nonzero;"/><path d="M281.145,10.531c2.112,0.43 3.287,0.854 3.287,1.277c0,0.427 0,1.066 0.233,1.706c-0.233,0.424 -0.233,1.274 -0.233,2.548l0,3.4c0,0.855 0,2.983 0.233,6.381c0.235,3.402 0.235,5.528 0.235,6.803l0.754,18.472l0.235,8.082l0,8.501c0,1.065 0,1.704 0.235,2.341l0,4.25l0.24,1.703c0.232,-0.639 0.702,-1.915 0.937,-3.192c0.235,-1.697 0.703,-2.761 0.943,-3.398c0.937,-2.343 2.11,-5.531 3.282,-9.354l3.523,-11.271c1.174,-3.618 1.875,-7.016 2.817,-10.21l1.643,-4.463c0.469,-2.55 0.942,-3.827 0.942,-4.037c2.815,-7.869 6.807,-17.013 6.807,-18.716c0.235,-0.635 1.645,-1.06 4.227,-1.275l2.348,0c7.984,0 12.211,0.425 12.211,1.492c0,0.21 -0.707,1.276 -1.882,3.61c-0.937,2.768 -4.222,11.062 -5.632,15.944c-1.408,4.892 -2.113,5.748 -3.29,9.788c-1.17,4.037 -2.582,7.867 -3.992,11.267l-5.398,17.862c-1.174,4.25 -2.819,8.712 -5.399,13.398c0,0.633 0,0.849 0.228,1.06c1.177,3.617 2.352,6.59 3.059,8.504l3.52,9.143c3.757,13.393 7.045,24.446 10.095,33.594c0.237,0.85 0.707,2.126 1.41,3.825c0.467,1.918 0.939,3.193 1.177,4.04l2.11,6.805c2.817,8.719 4.697,13.823 5.635,15.738l0,0.206l-0.238,0l-1.64,0.215c-2.582,0.214 -1.877,-0.215 -6.105,0.214c-2.58,0.213 -3.992,0 -4.462,0c-1.875,0 -3.287,-0.214 -4.462,-0.851c-1.407,-3.186 -2.813,-7.443 -4.458,-12.754c-1.644,-5.319 -2.819,-9.361 -3.992,-12.336l-1.877,-5.739c-0.238,-0.215 -1.643,-5.529 -4.7,-15.522l-6.807,-25.941c-0.47,-0.637 -0.94,-0.852 -1.643,-0.852c-0.235,0 -0.467,0 -0.705,0.215c-0.472,0.21 -0.707,0.21 -0.942,0.21c0.235,1.916 0.47,5.106 0.47,9.785l0.24,5.309l0.232,11.485l0,11.269c0.238,1.06 0.47,2.978 0.705,5.316l0,11.062c0.235,2.121 0.235,4.67 0.235,7.858l0,7.234c0,0.85 -1.172,1.279 -3.757,1.279c-0.705,0 -2.115,0 -4.227,-0.217l-3.755,0c-2.589,-0.212 -3.755,-0.847 -3.995,-1.701c0.24,0 0.468,-0.212 0.468,-0.635c0,-0.429 -0.228,-1.276 -0.468,-2.338l-0.232,-8.087c0,-4.884 0,-12.329 -0.238,-22.746c-0.228,-10.206 -0.228,-17.86 -0.228,-22.754l0,-1.27l0,-1.703l0,-1.494l0,-1.272l0,-4.04l0,-1.276l0,-1.064l0,-1.27c-0.239,-0.427 -0.239,-1.069 -0.239,-1.916l0,-2.548l0,-0.854l-0.235,-0.427c0,-0.211 0.235,-0.421 0.474,-0.635c-0.239,-2.339 -0.474,-4.044 -0.474,-5.104l0,-10.206l-0.237,-7.234l0,-2.336l-0.233,-4.677l0,-4.252c0,-1.064 0,-1.916 -0.237,-2.548l0,-1.916l0,-2.129l0,-2.121l-0.05,-8.265l0,-6.595l-0.233,-6.378c0,-1.699 0,-2.761 0.233,-3.615l0,-0.422l0,-1.489c-0.233,-0.642 -0.233,-1.064 -0.233,-1.064c0,-0.425 0,-0.848 0.233,-0.848c0,-1.491 -0.233,-2.345 -0.47,-2.765l0,-0.427l0,-0.212c0.47,0 1.173,-0.85 3.757,-1.065l0.705,0c0,0 0.233,0.215 0.705,0.423c0.233,0 0.7,-0.208 0.938,-0.208l0.705,0c0.937,0 2.584,0 4.932,0.42" style="fill:#fcc615;fill-rule:nonzero;"/><path d="M337.577,159.919c-0.237,-0.432 -0.253,-1.284 -0.271,-2.361c-0.253,-1.071 -0.269,-1.93 -0.271,-2.359c-0.158,-9.869 -0.294,-18.237 -0.17,-25.103l-0.047,-2.788l-0.038,-2.572l-0.048,-2.79c0.224,-0.858 0.197,-2.361 0.161,-4.72c-0.03,-1.712 -0.05,-3 -0.299,-3.861c0.213,-1.071 0.43,-2.573 0.405,-4.071l-0.075,-4.51l-0.04,-2.573c-0.019,-1.073 -0.03,-1.932 0.198,-2.361l-0.264,-16.306c0.411,-3.427 0.596,-6.861 0.531,-10.506l-0.172,-10.727c0.572,-8.371 0.714,-14.374 0.646,-18.45l-0.018,-11.538c-0.036,-2.356 0.149,-5.149 0.341,-7.935c-0.244,-0.646 -0.264,-1.719 -0.28,-2.79l0.102,-8.366c-0.002,-0.222 -0.014,-0.642 -0.251,-1.071l-0.011,-0.429c0,-0.22 3.75,-0.642 11.495,-0.861c4.458,0 7.983,0 10.567,0.219c0.94,-0.219 18.5,-0.219 20.608,-0.219c1.882,0.219 3.059,0.431 3.761,0.431c2.117,0.21 3.536,0.64 3.776,0.859l0,0.212c0.241,0.217 0.241,0.217 0.246,0.432l0.483,1.068l0.007,0.434l0.025,1.505c0.244,0.637 0.255,1.066 0.26,1.283l0.018,1.496c0.047,2.795 -0.163,4.293 -0.633,4.293l-0.23,0.214c-0.23,0.217 -0.7,0.217 -1.166,0.432l-1.412,0c-0.7,0.212 -1.168,0.212 -1.64,0.212l-4.462,0c-0.938,0 -18.495,0.212 -20.371,0.432c-3.522,-0.22 -6.811,-0.22 -7.046,-0.432l0.239,15.02l-0.158,0.809c0.041,2.361 0.088,5.359 -0.088,8.793l-0.097,8.583c0.038,2.357 0.305,4.503 0.334,6.433c-0.199,1.934 0.059,3.651 -0.149,5.156c0.02,1.281 -0.199,2.568 -0.181,3.422l0.041,3.615l0.059,4.076l0.015,0.857l3.286,-0.211c0.234,0 1.172,0 2.58,-0.214l14.089,0c3.99,0 2.903,0.219 2.912,0.863c0.002,0.214 -0.214,1.288 -0.181,3.434l0.079,4.72l0.016,1.066c-0.201,2.147 -0.653,3.217 -1.358,3.217c-1.165,0.434 -8.757,0.642 -12.749,0.642l-0.709,0l-6.81,-0.217c-0.94,0 -1.396,0.644 -1.378,2.147l0.034,1.929c0.255,1.078 0.264,1.717 0.273,2.149l0.014,1.073c-0.436,2.144 -0.57,6.902 -0.455,13.976l-0.018,13.52c0.014,0.856 0.03,1.927 -0.176,3.425l-0.172,18.671c1.169,-0.219 2.346,-0.219 3.988,-0.219c1.65,0 3.057,0 3.755,-0.21c0.703,0 1.64,0 2.822,0.21l25.61,0c0.709,0.219 1.22,2.58 1.29,7.298c0.072,4.29 -0.129,6.432 -0.834,6.432c-1.159,0.646 -2.802,0.861 -4.442,0.861l-2.117,0c-1.177,-0.215 -2.117,-0.215 -2.819,-0.215l-1.413,0c-1.409,-0.215 -18.101,-0.215 -22.089,-0.215l-8.459,0c-0.698,0.215 -1.871,0.215 -3.283,0.215c-1.64,0 -3.524,-0.429 -5.422,-1.502l-0.007,-0.432c-0.242,-0.425 -0.246,-0.639 -0.251,-0.854l-0.036,-2.146Z" style="fill:#fcc615;fill-rule:nonzero;"/><path d="M43.65,105.331l3.215,0c1.609,0 2.528,0 3.213,-0.199l3.452,-0.204l-0.463,-8.574c-0.228,-1.224 -0.461,-3.87 -0.687,-8.163c0,-0.614 0,-1.633 -0.23,-3.059l0,-3.267c0,-0.201 -0.231,-2.449 -0.689,-7.142c0,-1.635 -0.233,-4.078 -0.689,-7.548l-1.839,-13.676c-2.987,-23.264 -2.529,-20.408 -4.363,-30.207c-0.231,-1.019 -1.839,-0.816 -2.3,-1.218c-0.231,0 -1.148,3.059 -1.837,4.693l-1.611,4.078c-0.687,1.019 -1.376,3.674 -2.298,7.752c-2.984,12.862 -5.049,20.004 -6.432,29.796l-1.604,11.226c-0.689,3.88 -1.148,5.92 -1.148,6.121c0,0.21 0,0.409 0.226,0.617l0,0.61c-0.226,0.61 -0.226,1.224 -0.456,1.837c-0.233,0.61 -0.233,1.224 -0.459,1.631c0,0.411 0,0.61 -0.233,0.818c0,0.409 -0.23,2.243 -0.917,5.714c-0.685,3.468 -0.922,5.917 -0.922,6.94l0,0.816c2.987,0.608 5.974,0.813 8.733,0.813c0.463,-0.205 1.378,-0.205 2.523,-0.205l7.815,0Zm15.163,47.554c-0.235,-1.837 -0.461,-3.468 -0.461,-4.489c0,-1.026 -0.461,-1.839 -0.233,-2.452c-0.228,-2.245 -0.917,-6.73 -1.602,-13.879c-0.687,-7.137 -1.152,-11.021 -1.38,-11.834c-1.381,-0.203 -4.365,-0.615 -8.963,-0.813c-0.228,0 -1.148,0 -2.982,-0.202l-3.679,0l-1.836,0c-0.69,0 -1.609,0 -2.987,-0.207l-2.526,0l-2.072,0c-0.915,0.207 -1.604,0.207 -2.063,0.207c-3.908,0 -6.202,0.202 -6.434,0.4c-0.229,0.206 -0.459,1.024 -0.922,2.657c0,1.837 -0.454,3.882 -0.454,6.123c-0.461,2.447 -0.461,3.877 -0.694,4.483c-0.228,1.028 -0.456,2.252 -0.917,3.883c-0.459,1.837 -0.689,3.064 -0.922,3.877l0,1.223c0,1.837 -0.226,4.082 -0.917,6.534c-0.687,6.529 -1.607,11.427 -3.218,14.893c-1.373,0.411 -2.751,0.61 -3.901,0.61l-2.987,0c-4.365,0 -6.435,-0.404 -6.663,-1.423l0,-0.411c0,-0.608 0.228,-2.036 0.463,-4.081c0.457,-1.837 0.687,-3.267 0.687,-4.082c0.685,-3.466 1.606,-8.977 2.295,-16.326c0.922,-7.754 1.611,-13.265 2.3,-16.733c0.231,-1.425 0.457,-3.267 0.918,-5.513c0.691,-2.239 0.917,-4.078 1.148,-5.099l0.917,-5.508l1.385,-7.345c0.456,-1.43 0.917,-3.882 1.143,-7.147c0,-0.614 0.228,-1.631 0.459,-3.264l0.921,-3.468l1.146,-6.534c2.3,-14.894 5.287,-23.872 8.269,-37.55c0.233,-1.017 0.459,-2.445 0.922,-4.28c0.233,-1.843 0.459,-3.065 0.689,-3.468c2.293,-9.593 5.739,-16.332 6.663,-21.228c0.463,-0.811 1.378,-1.428 2.756,-1.837c1.15,-0.615 0.92,-0.813 5.282,-0.813c5.976,0 11.946,1.222 19.071,3.671c1.144,3.267 1.837,6.118 1.837,8.773l0,1.227c0.459,1.224 1.15,2.858 1.374,5.101c0,0.613 0.233,1.426 0.463,2.861c0.233,1.423 0.233,2.442 0.233,3.056l0.458,6.733c0.226,2.449 0.457,4.494 0.457,5.924c0.458,1.426 0.691,3.26 0.691,5.915c0.231,1.634 0.463,3.877 0.463,6.527l0.685,9.801l0.691,6.937c0.687,8.775 1.607,15.916 2.296,21.633l2.065,14.489c0.458,3.874 0.922,7.55 1.38,11.018c0.687,5.109 1.148,7.956 1.148,8.776l0,0.82c0,2.243 0.23,5.099 0.917,8.775c1.153,8.364 0.922,9.998 2.072,19.387l0,1.017c0,1.634 0.461,2.447 0.228,3.059c-0.228,0.411 -0.922,0.61 -2.3,1.021c-1.145,0.206 -2.291,0.409 -4.134,0.615c-0.922,0.407 -2.524,0.61 -2.985,0.61c-3.448,0 -4.828,-0.61 -4.828,-1.835l0,-0.205c-1.148,-2.244 -1.832,-5.714 -1.832,-10.61" style="fill:#fcc615;fill-rule:nonzero;"/><path d="M187.462,12.828c-0.228,0 -0.228,0.204 -0.228,0.411c-0.224,0.206 -0.224,0.409 -0.448,0.619c0.224,0.624 0.448,1.035 0.448,1.241c0,0.21 -0.224,0.831 -0.448,1.658c0.224,0.418 0.224,1.039 0.224,1.663c0,0.413 0,1.037 -0.224,2.07c-0.23,1.039 -0.456,1.866 -0.456,2.284l0,1.651c0,2.28 0,3.941 -0.228,5.185c-1.134,11.602 -2.04,21.134 -2.723,28.8c-0.223,1.039 -0.223,2.488 -0.452,4.354c-0.226,2.069 -0.454,3.52 -0.454,4.347c0,0.212 0,1.455 -0.228,3.938c-0.224,2.282 -0.452,4.146 -0.452,5.181l-1.132,9.331c-2.948,29.832 -6.129,52.425 -9.076,67.551c-0.68,3.523 -1.134,5.389 -1.362,5.594c0,0.622 -0.452,2.488 -1.358,5.592c-0.23,0.21 -1.423,-0.284 -3.011,0.339l-0.68,0c-0.229,-0.21 -0.452,-0.21 -0.683,-0.21c-0.68,0 -1.584,0.21 -2.718,0.418c-1.136,0.203 -1.816,0.409 -2.04,0.409c-4.315,-0.617 -8.705,-1.5 -8.933,-1.706c-1.812,-0.619 -2.949,-1.245 -3.179,-2.069c-5.212,-13.473 -14.372,-57.001 -15.278,-62.179c-0.684,5.386 -8.624,47.875 -8.624,47.875c-0.906,8.084 -1.592,15.056 -2.27,16.915c-0.226,0.208 -1.586,0.418 -4.081,0.418c-0.682,0.208 -1.814,0.208 -3.628,0.208c-1.814,0 -3.174,0 -3.859,-0.208l-1.362,0c-0.906,0 -2.045,0 -3.403,-0.21c-1.584,-0.208 -2.494,-0.208 -3.174,-0.208c-2.038,-0.619 -3.177,-0.824 -3.177,-1.034c-0.454,-0.412 -0.904,-1.657 -1.588,-3.728c-0.231,-0.622 -0.457,-2.282 -1.134,-4.975c-1.135,-6.837 -2.725,-17.198 -4.307,-31.292l-0.454,-3.73l-0.91,-5.176c0,-0.622 0,-1.661 -0.229,-3.107l-0.68,-3.525c-0.226,-1.45 -0.449,-3.935 -1.136,-7.67l-6.048,-33.998c-0.671,-3.943 -1.128,-7.045 -1.356,-9.535c-0.675,-1.24 -1.511,-3.009 -1.511,-5.284c0,-0.208 0,-0.626 0.23,-1.25l0,-1.242c-0.23,-1.035 -0.913,-3.726 -1.819,-8.285l-4.478,-23.915c-0.226,-1.659 -0.454,-2.696 -0.454,-3.107l0,-0.623l0,-0.834c0,-0.203 0,-0.411 -0.226,-0.411l-0.226,0c0,-1.035 1.358,-1.659 3.859,-2.072c3.172,-0.829 8.175,0.208 9.087,0.208l0.676,0c0.226,0.205 0.454,0.205 0.68,0.205c0.228,-0.205 1.371,-0.436 2.047,-0.436c1.819,0 2.953,0.411 3.179,1.035c0.682,0.827 2.266,10.151 4.534,27.975c0.231,1.866 0.685,4.559 0.911,8.292l0.677,3.31c0.231,2.282 0.685,3.94 0.911,4.979c0.224,1.035 0.224,2.481 0.454,4.553c0.224,2.072 -0.004,3.757 0.222,4.794l2.266,18.441c0.456,2.695 0.68,5.393 0.68,7.876l0,1.66c0.454,1.449 0.91,3.112 1.134,5.387c0.226,2.277 0.454,3.524 0.68,4.148l1.134,8.698c1.588,14.711 2.723,23.007 3.172,24.457c0.459,2.276 13.064,-54.013 13.29,-55.669c0.223,-4.146 1.43,-7.298 1.884,-9.162l1.529,-6.773c0.226,-0.832 2.269,-1.248 5.902,-1.248c6.123,0 9.073,0.624 9.073,1.661c0,0 13.696,58.001 14.146,60.907c0.456,2.065 0.685,3.931 0.685,5.59c0.451,1.45 0.68,3.108 0.68,4.977c0.23,0.203 0.23,0.827 0.451,1.658c0.231,0.827 0.459,1.241 0.459,1.444c0.454,1.455 6.575,-32.609 6.575,-32.609l1.134,-12.844c0.908,-13.475 2.501,-27.354 3.859,-42.067c0.226,-2.901 0.488,-7.282 1.175,-11.631c0.454,-5.183 -0.278,-14.211 1.764,-27.268c0.226,-0.621 1.363,-1.034 3.855,-1.242c1.586,0 5.684,0.56 9.084,0.77c2.043,0.208 3.175,0.832 3.403,1.455l-0.228,0Z" style="fill:#fcc615;fill-rule:nonzero;"/></g></g></svg>