<?xml version="1.0" encoding="utf-8"?>
<!-- Generator: Adobe Illustrator 19.2.0, SVG Export Plug-In . SVG Version: 6.00 Build 0)  -->
<svg version="1.1" id="Layer_1" xmlns="http://www.w3.org/2000/svg" xmlns:xlink="http://www.w3.org/1999/xlink" x="0px" y="0px"
	 viewBox="0 0 7108.1 1127.3" style="enable-background:new 0 0 7108.1 1127.3;" xml:space="preserve">
<style type="text/css">
	.st0{fill:#FCDD00;}
	.st1{fill:#003333;}
	.st2{fill:#04572C;}
	.st3{fill:#FEFEFE;}
	.st4{enable-background:new    ;}
	.st5{fill:none;}
</style>
<g>
	<ellipse transform="matrix(0.4856 -0.8742 0.8742 0.4856 -189.1278 312.9203)" class="st0" cx="171.3" cy="317.2" rx="0" ry="0"/>
	<ellipse transform="matrix(0.749 -0.6626 0.6626 0.749 -384.3228 826.5734)" class="st1" cx="898.8" cy="920.5" rx="0" ry="0"/>
	<g>
		<path class="st2" d="M583.4,560.7L332.6,412.5l-161.2-95.3c-42.2,71.3-66.5,154.6-66.5,243.5c0,264.3,214.3,478.6,478.6,478.6
			c120.8,0,231.2-44.8,315.4-118.7L773.4,777.4L583.4,560.7z"/>
		<path class="st0" d="M171.3,317.2l161.2,95.3l250.8,148.2v-32.3V82.1C408,82.1,254.7,176.5,171.3,317.2z"/>
		<path class="st1" d="M773.4,777.4l125.4,143.1c100-87.7,163.1-216.4,163.1-359.9c0-264.3-214.3-478.6-478.6-478.6v478.6
			L773.4,777.4z"/>
	</g>
	<path class="st3" d="M723.2,712.5H443.5c-6.6,0-12-5.4-12-12V420.8c0-6.6,5.4-12,12-12h279.7c6.6,0,12,5.4,12,12v279.7
		C735.2,707.1,729.8,712.5,723.2,712.5z"/>
</g>
<title>coinsquare-logo-revised</title>
<g class="st4">
	<path class="st1" d="M1741.6,662.2h91.5c-32.8,109.6-133.3,186.5-266.7,186.5c-169.5,0-278-130-278-291.5s108.5-291.5,278-291.5
		c133.3,0,233.9,76.8,266.7,186.5h-91.5c-26-64.4-83.6-109.6-163.9-109.6c-125.4,0-204.5,98.3-204.5,214.7s79.1,214.7,204.5,214.7
		C1657.9,771.8,1715.6,726.6,1741.6,662.2z"/>
	<path class="st1" d="M2463.6,557.1c0,161.6-107.4,291.5-280.2,291.5s-280.2-130-280.2-291.5s107.4-291.5,280.2-291.5
		S2463.6,395.5,2463.6,557.1z M2378.9,557.1c0-116.4-70.1-214.7-195.5-214.7c-125.4,0-195.5,98.3-195.5,214.7
		s70.1,214.7,195.5,214.7C2308.8,771.8,2378.9,673.5,2378.9,557.1z"/>
	<path class="st1" d="M2663.6,68.9v110.7h-91.5V68.9H2663.6z M2575.5,274.6h84.8v565h-84.8V274.6z"/>
	<path class="st1" d="M2891.9,274.6v88.1c40.7-54.2,96.1-97.2,187.6-97.2c116.4,0,226,84.8,226,245.2v328.8h-84.8V513
		c0-102.8-65.5-170.6-158.2-170.6c-93.8,0-170.6,70.1-170.6,171.8v325.4h-84.8v-565H2891.9z"/>
	<path class="st1" d="M3864.8,426h-85.9c-6.8-48.6-42.9-88.1-137.9-88.1c-88.1,0-134.5,26-134.5,81.4
		c0,135.6,376.3,47.5,376.3,259.9c0,109.6-90.4,169.5-230.5,169.5c-157.1,0-239.6-87-245.2-186.5h88.1
		c5.6,57.6,48.6,114.1,158.2,114.1c46.3,0,144.6-12.4,144.6-89.3c0-141.2-376.3-53.1-376.3-259.9c0-101.7,75.7-161.6,221.5-161.6
		C3792.5,265.5,3854.6,343.5,3864.8,426z"/>
	<path class="st1" d="M3956.3,557.1c0-161.6,108.5-291.5,273.5-291.5c93.8,0,160.5,38.4,202.3,99.4v-90.4h84.8v788.7H4432V748.1
		c-41.8,61-108.5,100.6-202.3,100.6C4064.8,848.6,3956.3,718.7,3956.3,557.1z M4041.1,557.1c0,116.4,74.6,214.7,200,214.7
		s195.5-98.3,195.5-214.7s-70.1-214.7-195.5-214.7S4041.1,440.7,4041.1,557.1z"/>
	<path class="st1" d="M5071.6,839.6v-88.1c-40.7,54.2-96,97.2-187.6,97.2c-116.4,0-226-84.8-226-245.2V274.6h84.8v326.6
		c0,102.8,65.5,170.6,158.2,170.6c93.8,0,170.6-70.1,170.6-171.8V274.6h84.8v565H5071.6z"/>
	<path class="st1" d="M5743.9,366.1v-91.5h84.8v565h-84.8v-90.4c-41.8,61-108.5,99.4-202.3,99.4c-165,0-273.5-130-273.5-291.5
		s108.5-291.5,273.5-291.5C5635.5,265.5,5702.1,305.1,5743.9,366.1z M5748.5,557.1c0-116.4-70.1-214.7-195.5-214.7
		s-200,98.3-200,214.7s74.6,214.7,200,214.7S5748.5,673.5,5748.5,557.1z"/>
</g>
<g class="st4">
	<path class="st1" d="M6273.9,265.5v84.8h-10.2c-126.6,0-203.4,116.4-203.4,240.7v248.6h-84.8v-565h84.8v139
		c11.3-38.4,67.8-148,207.9-148H6273.9z"/>
</g>
<g class="st4">
	<path class="st1" d="M6766.6,676.9h92.7c-39.5,101.7-123.2,171.8-257.6,171.8c-172.9,0-285.9-130-285.9-291.5
		s107.4-291.5,280.2-291.5s280.2,130,280.2,291.5V591h-473.5c12.4,100.6,85.9,180.8,200,180.8
		C6681.8,771.8,6736.1,733.4,6766.6,676.9z M6403.9,511.9h384.2c-15.8-96.1-83.6-169.5-192.1-169.5S6419.7,415.8,6403.9,511.9z"/>
</g>
<g id="coin">
	<path class="st5" d="M1741.6,662.2h91.5c-32.8,109.6-133.3,186.5-266.7,186.5c-169.5,0-278-130-278-291.5s108.5-291.5,278-291.5
		c133.3,0,233.9,76.8,266.7,186.4h-91.5c-26-64.4-83.6-109.6-163.8-109.6c-125.4,0-204.5,98.3-204.5,214.7s79.1,214.7,204.5,214.7
		C1657.9,771.8,1715.6,726.6,1741.6,662.2z"/>
	<path class="st5" d="M2463.6,557.1c0,161.6-107.4,291.5-280.2,291.5s-280.2-130-280.2-291.5s107.3-291.5,280.2-291.5
		S2463.6,395.5,2463.6,557.1z M2378.9,557.1c0-116.4-70.1-214.7-195.5-214.7s-195.5,98.3-195.5,214.7s70.1,214.7,195.5,214.7
		S2378.9,673.5,2378.9,557.1z"/>
	<path class="st5" d="M2663.6,68.9v110.7h-91.5V68.9H2663.6z M2575.5,274.6h84.8v565h-84.8V274.6z"/>
	<path class="st5" d="M2891.9,274.6v88.1c40.7-54.2,96.1-97.2,187.6-97.2c116.4,0,226,84.8,226,245.2v328.8h-84.8V513
		c0-102.8-65.5-170.6-158.2-170.6c-93.8,0-170.6,70.1-170.6,171.8v325.5h-84.8v-565L2891.9,274.6L2891.9,274.6z"/>
	<path class="st5" d="M3864.8,426h-85.9c-6.8-48.6-42.9-88.1-137.9-88.1c-88.1,0-134.5,26-134.5,81.4
		c0,135.6,376.3,47.5,376.3,259.9c0,109.6-90.4,169.5-230.5,169.5c-157.1,0-239.6-87-245.2-186.5h88.1
		c5.6,57.6,48.6,114.1,158.2,114.1c46.3,0,144.6-12.4,144.6-89.3c0-141.2-376.3-53.1-376.3-259.9c0-101.7,75.7-161.6,221.5-161.6
		C3792.5,265.5,3854.6,343.5,3864.8,426z"/>
	<path class="st5" d="M3956.3,557.1c0-161.6,108.5-291.5,273.5-291.5c93.8,0,160.5,38.4,202.3,99.4v-90.4h84.8v788.7H4432V748.1
		c-41.8,61-108.5,100.6-202.3,100.6C4064.8,848.6,3956.3,718.7,3956.3,557.1z M4041.1,557.1c0,116.4,74.6,214.7,200,214.7
		s195.5-98.3,195.5-214.7s-70.1-214.7-195.5-214.7S4041.1,440.7,4041.1,557.1z"/>
	<path class="st5" d="M5071.6,839.6v-88.1c-40.7,54.2-96,97.2-187.6,97.2c-116.4,0-226-84.8-226-245.2V274.6h84.8v326.6
		c0,102.8,65.5,170.6,158.2,170.6c93.8,0,170.6-70.1,170.6-171.8V274.6h84.8v565L5071.6,839.6L5071.6,839.6z"/>
	<path class="st5" d="M5744,366.1v-91.5h84.8v565H5744v-90.4c-41.8,61-108.5,99.4-202.3,99.4c-165,0-273.5-130-273.5-291.5
		s108.5-291.5,273.5-291.5C5635.5,265.5,5702.1,305.1,5744,366.1z M5748.5,557.1c0-116.4-70.1-214.7-195.5-214.7
		s-200,98.3-200,214.7s74.6,214.7,200,214.7S5748.5,673.5,5748.5,557.1L5748.5,557.1z"/>
	<path class="st5" d="M6273.9,265.5v84.8h-10.2c-126.6,0-203.4,116.4-203.4,240.7v248.6h-84.8v-565h84.8v139
		c11.3-38.4,67.8-148,207.9-148L6273.9,265.5L6273.9,265.5z"/>
	<path class="st5" d="M6766.6,676.9h92.7c-39.5,101.7-123.2,171.8-257.6,171.8c-172.9,0-285.9-130-285.9-291.5
		s107.4-291.5,280.3-291.5s280.2,130,280.2,291.5V591h-473.5c12.4,100.6,85.9,180.8,200,180.8
		C6681.8,771.8,6736.1,733.4,6766.6,676.9z M6403.9,511.9h384.2c-15.8-96-83.6-169.5-192.1-169.5S6419.7,415.8,6403.9,511.9
		L6403.9,511.9z"/>
</g>
</svg>
